<svg width="28" height="28" viewBox="0 0 28 28" fill="none" xmlns="http://www.w3.org/2000/svg">
<path d="M16.1463 6.85714H6.39024V8.89795C6.39024 9.71427 9.90244 13.3877 9.90244 13.3877L6 17.4694L7.56098 19.102L20.439 5.63265L18.878 4L16.1463 6.85714Z" fill="#151515"/>
<path d="M21.2195 6.85714L12.2439 16.2449C12.2439 16.2449 12.6341 16.653 12.6341 17.0612V24L15.7561 22.3673V17.0612V16.653C15.7561 16.61 15.8254 16.4991 15.9493 16.3346C17.0022 14.9371 22 9.67128 22 9.30611V6.85714H21.2195Z" fill="#151515"/>
<path d="M16.1463 6.85714H6.39024V8.89795C6.39024 9.71427 9.90244 13.3877 9.90244 13.3877L6 17.4694L7.56098 19.102L20.439 5.63265L18.878 4L16.1463 6.85714Z" stroke="#151515" stroke-width="0.05"/>
<path d="M21.2195 6.85714L12.2439 16.2449C12.2439 16.2449 12.6341 16.653 12.6341 17.0612V24L15.7561 22.3673V17.0612V16.653C15.7561 16.61 15.8254 16.4991 15.9493 16.3346C17.0022 14.9371 22 9.67128 22 9.30611V6.85714H21.2195Z" stroke="#151515" stroke-width="0.05"/>
</svg>
