<svg width="20" height="18" viewBox="0 0 20 18" fill="none" xmlns="http://www.w3.org/2000/svg">
<path d="M17 0H3C1.586 0 0.879 -5.96046e-08 0.44 0.412C5.96046e-08 0.824 0 1.488 0 2.815V3.505C0 4.542 0 5.061 0.26 5.491C0.52 5.921 0.993 6.189 1.942 6.723L4.855 8.363C5.491 8.721 5.81 8.9 6.038 9.098C6.512 9.509 6.804 9.993 6.936 10.588C7 10.872 7 11.206 7 11.873V14.543C7 15.452 7 15.907 7.252 16.261C7.504 16.616 7.952 16.791 8.846 17.141C10.725 17.875 11.664 18.242 12.332 17.824C13 17.407 13 16.452 13 14.542V11.872C13 11.206 13 10.872 13.064 10.587C13.1896 10.0042 13.5059 9.47984 13.963 9.097C14.19 8.9 14.509 8.721 15.145 8.362L18.058 6.722C19.006 6.189 19.481 5.922 19.74 5.492C20 5.062 20 4.542 20 3.504V2.814C20 1.488 20 0.824 19.56 0.412C19.122 -5.96046e-08 18.415 0 17 0Z" fill="#FFFEFE"/>
</svg>
