<svg width="25" height="25" viewBox="0 0 25 25" fill="none" xmlns="http://www.w3.org/2000/svg">
<path d="M1.47059 25C1.08056 25 0.706514 24.8683 0.430726 24.6339C0.154937 24.3995 0 24.0815 0 23.75V13.75C0 13.4185 0.154937 13.1005 0.430726 12.8661C0.706514 12.6317 1.08056 12.5 1.47059 12.5C1.86061 12.5 2.23466 12.6317 2.51045 12.8661C2.78624 13.1005 2.94118 13.4185 2.94118 13.75V23.75C2.94118 24.0815 2.78624 24.3995 2.51045 24.6339C2.23466 24.8683 1.86061 25 1.47059 25ZM8.82353 25C8.43351 25 8.05946 24.8683 7.78367 24.6339C7.50788 24.3995 7.35294 24.0815 7.35294 23.75V1.25C7.35294 0.918479 7.50788 0.600537 7.78367 0.366116C8.05946 0.131696 8.43351 0 8.82353 0C9.21355 0 9.5876 0.131696 9.86339 0.366116C10.1392 0.600537 10.2941 0.918479 10.2941 1.25V23.75C10.2941 24.0815 10.1392 24.3995 9.86339 24.6339C9.5876 24.8683 9.21355 25 8.82353 25ZM16.1765 25C15.7864 25 15.4124 24.8683 15.1366 24.6339C14.8608 24.3995 14.7059 24.0815 14.7059 23.75V8.75C14.7059 8.41848 14.8608 8.10054 15.1366 7.86612C15.4124 7.6317 15.7864 7.5 16.1765 7.5C16.5665 7.5 16.9405 7.6317 17.2163 7.86612C17.4921 8.10054 17.6471 8.41848 17.6471 8.75V23.75C17.6471 24.0815 17.4921 24.3995 17.2163 24.6339C16.9405 24.8683 16.5665 25 16.1765 25ZM23.5294 25C23.1394 25 22.7653 24.8683 22.4895 24.6339C22.2138 24.3995 22.0588 24.0815 22.0588 23.75V18.75C22.0588 18.4185 22.2138 18.1005 22.4895 17.8661C22.7653 17.6317 23.1394 17.5 23.5294 17.5C23.9194 17.5 24.2935 17.6317 24.5693 17.8661C24.8451 18.1005 25 18.4185 25 18.75V23.75C25 24.0815 24.8451 24.3995 24.5693 24.6339C24.2935 24.8683 23.9194 25 23.5294 25Z" fill="url(#paint0_linear_125_7)"/>
<defs>
<linearGradient id="paint0_linear_125_7" x1="12.5" y1="0" x2="12.5" y2="25" gradientUnits="userSpaceOnUse">
<stop stop-color="#4343E8"/>
<stop offset="1" stop-color="#EB3232"/>
</linearGradient>
</defs>
</svg>
